<svg version="1.1" xmlns="http://www.w3.org/2000/svg" xmlns:xlink="http://www.w3.org/1999/xlink" width="62.6" height="65.5" viewBox="0,0,62.6,65.5"><g transform="translate(-318.7,-153.3)"><g fill="#ffffff" stroke="#000000" stroke-width="0" stroke-miterlimit="10"><path d="M336.3,190c0,-7.5663 6.1337,-13.7 13.7,-13.7c7.5663,0 13.7,6.1337 13.7,13.7c0,7.5663 -6.1337,13.7 -13.7,13.7c-7.5663,0 -13.7,-6.1337 -13.7,-13.7z"/><path d="M320.7,184c0,-7.5663 6.1337,-13.7 13.7,-13.7c7.5663,0 13.7,6.1337 13.7,13.7c0,7.5663 -6.1337,13.7 -13.7,13.7c-7.5663,0 -13.7,-6.1337 -13.7,-13.7z"/><path d="M343.3,177.6c0,-7.5663 6.1337,-13.7 13.7,-13.7c7.5663,0 13.7,6.1337 13.7,13.7c0,7.5663 -6.1337,13.7 -13.7,13.7c-7.5663,0 -13.7,-6.1337 -13.7,-13.7z"/><path d="M350,198.8c0,-7.5663 6.1337,-13.7 13.7,-13.7c7.5663,0 13.7,6.1337 13.7,13.7c0,7.5663 -6.1337,13.7 -13.7,13.7c-7.5663,0 -13.7,-6.1337 -13.7,-13.7z"/><path d="M351.2,190c0,-7.5663 6.1337,-13.7 13.7,-13.7c7.5663,0 13.7,6.1337 13.7,13.7c0,7.5663 -6.1337,13.7 -13.7,13.7c-7.5663,0 -13.7,-6.1337 -13.7,-13.7z"/><path d="M373.5,210.6c0,-2.15391 1.74609,-3.9 3.9,-3.9c2.15391,0 3.9,1.74609 3.9,3.9c0,2.15391 -1.74609,3.9 -3.9,3.9c-2.15391,0 -3.9,-1.74609 -3.9,-3.9z"/><path d="M337.9,157.2c0,-2.15391 1.74609,-3.9 3.9,-3.9c2.15391,0 3.9,1.74609 3.9,3.9c0,2.15391 -1.74609,3.9 -3.9,3.9c-2.15391,0 -3.9,-1.74609 -3.9,-3.9z"/><path d="M318.7,193.6c0,-2.15391 1.74609,-3.9 3.9,-3.9c2.15391,0 3.9,1.74609 3.9,3.9c0,2.15391 -1.74609,3.9 -3.9,3.9c-2.15391,0 -3.9,-1.74609 -3.9,-3.9z"/><path d="M333,176.3c0,-7.5663 6.1337,-13.7 13.7,-13.7c7.5663,0 13.7,6.1337 13.7,13.7c0,7.5663 -6.1337,13.7 -13.7,13.7c-7.5663,0 -13.7,-6.1337 -13.7,-13.7z"/><path d="M320.7,203.5c0,-7.5663 6.1337,-13.7 13.7,-13.7c7.5663,0 13.7,6.1337 13.7,13.7c0,7.5663 -6.1337,13.7 -13.7,13.7c-7.5663,0 -13.7,-6.1337 -13.7,-13.7z"/><path d="M326.5,165.3c0,-1.82254 1.47746,-3.3 3.3,-3.3c1.82254,0 3.3,1.47746 3.3,3.3c0,1.82254 -1.47746,3.3 -3.3,3.3c-1.82254,0 -3.3,-1.47746 -3.3,-3.3z"/><path d="M370.3,177.6c0,-1.82254 1.47746,-3.3 3.3,-3.3c1.82254,0 3.3,1.47746 3.3,3.3c0,1.82254 -1.47746,3.3 -3.3,3.3c-1.82254,0 -3.3,-1.47746 -3.3,-3.3z"/><path d="M343.1,215.5c0,-1.82254 1.47746,-3.3 3.3,-3.3c1.82254,0 3.3,1.47746 3.3,3.3c0,1.82254 -1.47746,3.3 -3.3,3.3c-1.82254,0 -3.3,-1.47746 -3.3,-3.3z"/><path d="M333.7,201.8c0,-7.5663 6.1337,-13.7 13.7,-13.7c7.5663,0 13.7,6.1337 13.7,13.7c0,7.5663 -6.1337,13.7 -13.7,13.7c-7.5663,0 -13.7,-6.1337 -13.7,-13.7z"/></g></g></svg>