<svg version="1.1" xmlns="http://www.w3.org/2000/svg" xmlns:xlink="http://www.w3.org/1999/xlink" width="54.3" height="58.4" viewBox="0,0,54.3,58.4"><g transform="translate(-321.8,-157.5)"><g fill="#ffffff" stroke="#000000" stroke-width="0" stroke-miterlimit="10"><path d="M332.1,190c0,-9.88589 8.01411,-17.9 17.9,-17.9c9.88589,0 17.9,8.01411 17.9,17.9c0,9.88589 -8.01411,17.9 -17.9,17.9c-9.88589,0 -17.9,-8.01411 -17.9,-17.9z"/><path d="M342.3,176.4c0,-6.0199 4.8801,-10.9 10.9,-10.9c6.0199,0 10.9,4.8801 10.9,10.9c0,6.0199 -4.8801,10.9 -10.9,10.9c-6.0199,0 -10.9,-4.8801 -10.9,-10.9z"/><path d="M321.8,180.7c0,-8.67087 7.02913,-15.7 15.7,-15.7c8.67087,0 15.7,7.02913 15.7,15.7c0,8.67087 -7.02913,15.7 -15.7,15.7c-8.67087,0 -15.7,-7.02913 -15.7,-15.7z"/><path d="M361.3,179.7c0,-3.64508 2.95492,-6.6 6.6,-6.6c3.64508,0 6.6,2.95492 6.6,6.6c0,3.64508 -2.95492,6.6 -6.6,6.6c-3.64508,0 -6.6,-2.95492 -6.6,-6.6z"/><path d="M343.4,209.3c0,-3.64508 2.95492,-6.6 6.6,-6.6c3.64508,0 6.6,2.95492 6.6,6.6c0,3.64508 -2.95492,6.6 -6.6,6.6c-3.64508,0 -6.6,-2.95492 -6.6,-6.6z"/><path d="M333.9,206.5c0,-3.64508 2.95492,-6.6 6.6,-6.6c3.64508,0 6.6,2.95492 6.6,6.6c0,3.64508 -2.95492,6.6 -6.6,6.6c-3.64508,0 -6.6,-2.95492 -6.6,-6.6z"/><path d="M352.9,207.9c0,-3.64508 2.95492,-6.6 6.6,-6.6c3.64508,0 6.6,2.95492 6.6,6.6c0,3.64508 -2.95492,6.6 -6.6,6.6c-3.64508,0 -6.6,-2.95492 -6.6,-6.6z"/><path d="M371.7,191.7c0,-1.21503 0.98497,-2.2 2.2,-2.2c1.21503,0 2.2,0.98497 2.2,2.2c0,1.21503 -0.98497,2.2 -2.2,2.2c-1.21503,0 -2.2,-0.98497 -2.2,-2.2z"/><path d="M332.9,160.5c0,-1.65685 1.34315,-3 3,-3c1.65685,0 3,1.34315 3,3c0,1.65685 -1.34315,3 -3,3c-1.65685,0 -3,-1.34315 -3,-3z"/><path d="M323.9,191.7c0,-1.65685 1.34315,-3 3,-3c1.65685,0 3,1.34315 3,3c0,1.65685 -1.34315,3 -3,3c-1.65685,0 -3,-1.34315 -3,-3z"/></g></g></svg>