<svg version="1.1" xmlns="http://www.w3.org/2000/svg" xmlns:xlink="http://www.w3.org/1999/xlink" width="707.5" height="387.5" viewBox="0,0,707.5,387.5"><g transform="translate(3.75,3.75)"><g fill="none" stroke-miterlimit="10"><path d="M368.30237,3v374" stroke="#a8a8a8" stroke-width="1.5" stroke-linecap="round"/><path d="M37.83333,3v374" stroke="#a8a8a8" stroke-width="1.5" stroke-linecap="round"/><path d="M441.85397,3v374" stroke="#a8a8a8" stroke-width="1.5" stroke-linecap="round"/><path d="M111.38493,3v374" stroke="#a8a8a8" stroke-width="1.5" stroke-linecap="round"/><path d="M588.61507,3v374" stroke="#a8a8a8" stroke-width="1.5" stroke-linecap="round"/><path d="M258.14602,3v374" stroke="#a8a8a8" stroke-width="1.5" stroke-linecap="round"/><path d="M515.40557,3v374" stroke="#a8a8a8" stroke-width="1.5" stroke-linecap="round"/><path d="M184.93653,3v374" stroke="#a8a8a8" stroke-width="1.5" stroke-linecap="round"/><path d="M662.16667,3v374" stroke="#a8a8a8" stroke-width="1.5" stroke-linecap="round"/><path d="M331.69763,3v374" stroke="#a8a8a8" stroke-width="1.5" stroke-linecap="round"/><path d="M405.07817,3v374" stroke="#a8a8a8" stroke-width="1.5" stroke-linecap="round"/><path d="M74.60913,3v374" stroke="#a8a8a8" stroke-width="1.5" stroke-linecap="round"/><path d="M478.62977,3v374" stroke="#a8a8a8" stroke-width="1.5" stroke-linecap="round"/><path d="M148.16073,3v374" stroke="#a8a8a8" stroke-width="1.5" stroke-linecap="round"/><path d="M625.39087,3v374" stroke="#a8a8a8" stroke-width="1.5" stroke-linecap="round"/><path d="M294.92183,3v374" stroke="#a8a8a8" stroke-width="1.5" stroke-linecap="round"/><path d="M552.18137,3v374" stroke="#a8a8a8" stroke-width="1.5" stroke-linecap="round"/><path d="M221.71233,3v374" stroke="#a8a8a8" stroke-width="1.5" stroke-linecap="round"/><path d="M0,171.69763h700" stroke="#a8a8a8" stroke-width="1.5" stroke-linecap="round"/><path d="M0,98.14603h700" stroke="#a8a8a8" stroke-width="1.5" stroke-linecap="round"/><path d="M0,281.85398h700" stroke="#a8a8a8" stroke-width="1.5" stroke-linecap="round"/><path d="M0,24.59443l700,0" stroke="#a8a8a8" stroke-width="1.5" stroke-linecap="round"/><path d="M0,355.06347l700,0" stroke="#a8a8a8" stroke-width="1.5" stroke-linecap="round"/><path d="M0,208.30237l700,0" stroke="#a8a8a8" stroke-width="1.5" stroke-linecap="round"/><path d="M0,134.92183l700,0" stroke="#a8a8a8" stroke-width="1.5" stroke-linecap="round"/><path d="M0,61.37023l700,0" stroke="#a8a8a8" stroke-width="1.5" stroke-linecap="round"/><path d="M0,245.07817l700,0" stroke="#a8a8a8" stroke-width="1.5" stroke-linecap="round"/><path d="M0,318.28767l700,0" stroke="#a8a8a8" stroke-width="1.5" stroke-linecap="round"/><path d="" stroke="#5a5a5a" stroke-width="1.5" stroke-linecap="round"/><path d="M0,380v-380c0,0 212.79267,0 325,0c120.53001,0 375,0 375,0v380z" stroke="#ffffff" stroke-width="7.5" stroke-linecap="butt"/></g></g></svg>