<svg version="1.1" xmlns="http://www.w3.org/2000/svg" xmlns:xlink="http://www.w3.org/1999/xlink" width="29.45109" height="23.16099" viewBox="0,0,29.45109,23.16099"><g transform="translate(-340.5,-178.2945)"><g stroke="none" stroke-width="0" stroke-miterlimit="10"><path d="M364.98265,178.2945l2.46844,8.48417l-16.93374,4.92681l-2.46844,-8.48417z" fill="#ffffff"/><path d="M356.80683,181.72171l1.70273,3.0812l-1.50625,0.43824z" fill="#ff0000"/><path d="M361.02828,184.05679l-3.0812,1.70273l-0.43824,-1.50624z" fill="#ff0000"/><path d="M358.6932,188.27826l-1.70273,-3.0812l1.50625,-0.43824z" fill="#ff0000"/><path d="M354.47175,185.94318l3.0812,-1.70273l0.43824,1.50624z" fill="#ff0000"/><path d="M359.27525,182.24264l-0.90038,3.12474l-1.2701,-0.6976z" fill="#ff0000"/><path d="M360.50737,186.52521l-3.12474,-0.90038l0.6976,-1.2701z" fill="#ff0000"/><path d="M356.22479,187.75733l0.90038,-3.12474l1.2701,0.6976z" fill="#ff0000"/><path d="M354.99268,183.47476l3.12474,0.90038l-0.6976,1.2701z" fill="#ff0000"/><path d="M340.5,190c0,-5.2467 4.2533,-9.5 9.5,-9.5c5.2467,0 9.5,4.2533 9.5,9.5c0,5.2467 -4.2533,9.5 -9.5,9.5c-5.2467,0 -9.5,-4.2533 -9.5,-9.5z" fill="#ffffff"/><path d="M351.43205,194.41798v-8.83597h17.6359v8.83597z" fill="#ffffff"/><path d="M359.46568,189.97704h1.56871l-0.77416,3.4342z" fill="#ff0000"/><path d="M360.22705,190.78435v-1.5687l3.4342,0.77416z" fill="#ff0000"/><path d="M361.03437,190.02296h-1.5687l0.77416,-3.4342z" fill="#ff0000"/><path d="M360.27299,189.21565v1.5687l-3.43421,-0.77416z" fill="#ff0000"/><path d="M359.72272,190.49732l1.02465,-1.02464l1.73746,2.7488z" fill="#ff0000"/><path d="M360.74735,190.52731l-1.02465,-1.02464l2.7488,-1.73747z" fill="#ff0000"/><path d="M360.77733,189.50268l-1.02465,1.02464l-1.73746,-2.7488z" fill="#ff0000"/><path d="M359.75271,189.47269l1.02464,1.02464l-2.7488,1.73747z" fill="#ff0000"/><path d="M350.54891,196.52867l2.46844,-8.48417l16.93374,4.92681l-2.46844,8.48417z" fill="#ffffff"/><path d="M359.50332,194.50884l1.50625,0.43824l-1.70273,3.0812z" fill="#ff0000"/><path d="M360.00884,195.49671l0.43824,-1.50624l3.0812,1.70273z" fill="#ff0000"/><path d="M360.99672,194.99117l-1.50625,-0.43824l1.70273,-3.0812z" fill="#ff0000"/><path d="M360.49119,194.0033l-0.43824,1.50624l-3.0812,-1.70273z" fill="#ff0000"/><path d="M359.60477,195.08022l1.2701,-0.6976l0.90038,3.12474z" fill="#ff0000"/><path d="M360.58023,195.39525l-0.6976,-1.2701l3.12474,-0.90038z" fill="#ff0000"/><path d="M360.89526,194.4198l-1.2701,0.6976l-0.90038,-3.12474z" fill="#ff0000"/><path d="M359.91982,194.10476l0.6976,1.2701l-3.12474,0.90038z" fill="#ff0000"/></g></g></svg>