<svg version="1.1" xmlns="http://www.w3.org/2000/svg" xmlns:xlink="http://www.w3.org/1999/xlink" width="31.80861" height="22.21263" viewBox="0,0,31.80861,22.21263"><g transform="translate(-340.5,-179.08367)"><g stroke-width="0" stroke-miterlimit="10"><path d="M353.23996,198.62707l1.33734,-8.73418l17.43273,2.66923l-1.33734,8.73418z" fill="#ffffff" stroke="none"/><path d="M359.88324,197.60824l0.72813,-4.75539l4.39132,3.10583z" fill="#00c1ff" stroke="#000000"/><path d="M340.5,190c0,-5.2467 4.2533,-9.5 9.5,-9.5c5.2467,0 9.5,4.2533 9.5,9.5c0,5.2467 -4.2533,9.5 -9.5,9.5c-5.2467,0 -9.5,-4.2533 -9.5,-9.5z" fill="#ffffff" stroke="none"/><path d="M353.80705,194.41798v-8.83597h17.6359v8.83597z" fill="#ffffff" stroke="none"/><path d="M360.21959,192.40541v-4.81081l4.81081,2.40541z" fill="#00c1ff" stroke="#000000"/><path d="M355.32847,192.35553l-2.38708,-8.50742l16.98014,-4.76443l2.38708,8.50742z" fill="#ffffff" stroke="none"/><path d="M360.95887,188.68541l-1.29967,-4.63193l5.28176,1.0163z" fill="#00c1ff" stroke="#000000"/></g></g></svg>