<svg version="1.1" xmlns="http://www.w3.org/2000/svg" xmlns:xlink="http://www.w3.org/1999/xlink" width="58.8" height="51.8" viewBox="0,0,58.8,51.8"><g transform="translate(-325,-163.7)"><g fill="#ffffff" stroke="#000000" stroke-width="0" stroke-miterlimit="10"><path d="M332.1,190c0,-9.88589 8.01411,-17.9 17.9,-17.9c9.88589,0 17.9,8.01411 17.9,17.9c0,9.88589 -8.01411,17.9 -17.9,17.9c-9.88589,0 -17.9,-8.01411 -17.9,-17.9z"/><path d="M349.9,180.2c0,-6.0199 4.8801,-10.9 10.9,-10.9c6.0199,0 10.9,4.8801 10.9,10.9c0,6.0199 -4.8801,10.9 -10.9,10.9c-6.0199,0 -10.9,-4.8801 -10.9,-10.9z"/><path d="M327.1,174.6c0,-6.0199 4.8801,-10.9 10.9,-10.9c6.0199,0 10.9,4.8801 10.9,10.9c0,6.0199 -4.8801,10.9 -10.9,10.9c-6.0199,0 -10.9,-4.8801 -10.9,-10.9z"/><path d="M329.9,204.6c0,-6.0199 4.8801,-10.9 10.9,-10.9c6.0199,0 10.9,4.8801 10.9,10.9c0,6.0199 -4.8801,10.9 -10.9,10.9c-6.0199,0 -10.9,-4.8801 -10.9,-10.9z"/><path d="M357,190.8c0,-6.0199 4.8801,-10.9 10.9,-10.9c6.0199,0 10.9,4.8801 10.9,10.9c0,6.0199 -4.8801,10.9 -10.9,10.9c-6.0199,0 -10.9,-4.8801 -10.9,-10.9z"/><path d="M352.9,202.6c0,-4.36305 3.53695,-7.9 7.9,-7.9c4.36305,0 7.9,3.53695 7.9,7.9c0,4.36305 -3.53695,7.9 -7.9,7.9c-4.36305,0 -7.9,-3.53695 -7.9,-7.9z"/><path d="M343,172.1c0,-4.36305 3.53695,-7.9 7.9,-7.9c4.36305,0 7.9,3.53695 7.9,7.9c0,4.36305 -3.53695,7.9 -7.9,7.9c-4.36305,0 -7.9,-3.53695 -7.9,-7.9z"/><path d="M368,179.9c0,-4.36305 3.53695,-7.9 7.9,-7.9c4.36305,0 7.9,3.53695 7.9,7.9c0,4.36305 -3.53695,7.9 -7.9,7.9c-4.36305,0 -7.9,-3.53695 -7.9,-7.9z"/><path d="M325,197.7c0,-4.36305 3.53695,-7.9 7.9,-7.9c4.36305,0 7.9,3.53695 7.9,7.9c0,4.36305 -3.53695,7.9 -7.9,7.9c-4.36305,0 -7.9,-3.53695 -7.9,-7.9z"/></g></g></svg>