<svg version="1.1" xmlns="http://www.w3.org/2000/svg" xmlns:xlink="http://www.w3.org/1999/xlink" width="36.08335" height="53.14629" viewBox="0,0,36.08335,53.14629"><g transform="translate(-227.58332,-139.27037)"><g data-paper-data="{&quot;isPaintingLayer&quot;:true}" fill="#520056" fill-rule="nonzero" stroke-width="0" stroke-linecap="butt" stroke-linejoin="miter" stroke-miterlimit="10" stroke-dasharray="" stroke-dashoffset="0" style="mix-blend-mode: normal"><path d="M227.58333,167.58334h24.83333v24.83333h-24.83333z" data-paper-data="{&quot;index&quot;:null}" stroke="#000000"/><g data-paper-data="{&quot;index&quot;:null}"><path d="M257.61015,140.21525h5.08066v41.41973h-5.08066z" stroke="#000000"/><path d="M254.82199,140.95876h3.87245v39.93271h-3.87245z" stroke="#000000"/><path d="M258.46209,139.27037h3.25286v1.39408h-3.25286z" stroke="none"/><path d="M231.70235,173.56348c0,0 7.57995,-2.13129 11.57214,-3.99758c3.89261,-1.81974 12.08982,-7.06402 12.08982,-7.06402l1.5112,17.10526c0,0 -1.76341,-1.29163 -3.98419,-1.24168c-2.01527,0.04533 -9.42587,4.36634 -11.21843,5.08532c-2.18629,0.8769 -6.49438,1.54923 -6.49438,1.54923l-0.86211,-2.18508l-2.35752,-0.37127z" stroke="none"/><path d="M262.17965,140.94327h1.48702v2.78816h-1.48702z" stroke="none"/><path d="M262.17965,178.39761h1.48702v2.78817h-1.48702z" stroke="none"/><path d="M253.81516,152.2818h1.6729v11.89617h-1.6729z" stroke="none"/><path d="M247.30944,155.53466c0,0 2.44885,0.27882 3.71755,0.27882c1.33063,0 4.08931,-0.74351 4.08931,-0.74351v2.32347h-7.4351z" stroke="none"/><path d="M247.30944,155.72054h2.23053v11.71029h-2.23053c0,0 0.55763,-3.67327 0.55763,-5.57633c0,-1.99595 -0.55763,-6.13396 -0.55763,-6.13396z" stroke="none"/><path d="M250.90201,161.27451l3.36266,3.47113l-1.06804,1.03466l-3.36265,-3.47112z" stroke="none"/></g></g></g></svg>