<svg version="1.1" xmlns="http://www.w3.org/2000/svg" xmlns:xlink="http://www.w3.org/1999/xlink" width="36.08335" height="53.14629" viewBox="0,0,36.08335,53.14629"><g transform="translate(-216.33333,-139.27037)"><g data-paper-data="{&quot;isPaintingLayer&quot;:true}" fill="#520056" fill-rule="nonzero" stroke-width="0" stroke-linecap="butt" stroke-linejoin="miter" stroke-miterlimit="10" stroke-dasharray="" stroke-dashoffset="0" style="mix-blend-mode: normal"><path d="M252.41668,192.41667h-24.83333v-24.83333h24.83333z" data-paper-data="{&quot;index&quot;:null}" stroke="#000000"/><g data-paper-data="{&quot;index&quot;:null}"><path d="M222.38984,181.63498h-5.08065v-41.41973h5.08065z" stroke="#000000"/><path d="M225.17801,180.89147h-3.87245v-39.93271h3.87245z" stroke="#000000"/><path d="M221.53791,140.66445h-3.25286v-1.39408h3.25286z" stroke="none"/><path d="M248.04113,182.44365l-2.35752,0.37127l-0.86211,2.18508c0,0 -4.30809,-0.67233 -6.49438,-1.54923c-1.79256,-0.71898 -9.20316,-5.03999 -11.21843,-5.08532c-2.22078,-0.04996 -3.98419,1.24168 -3.98419,1.24168l1.5112,-17.10525c0,0 8.19721,5.24428 12.08982,7.06402c3.99219,1.86629 11.57214,3.99758 11.57214,3.99758z" stroke="none"/><path d="M217.82035,143.73143h-1.48702v-2.78816h1.48702z" stroke="none"/><path d="M217.82035,181.18578h-1.48702v-2.78817h1.48702z" stroke="none"/><path d="M226.18485,164.17797h-1.6729v-11.89617h1.6729z" stroke="none"/><path d="M232.31881,157.39344h-7.4351v-2.32347c0,0 2.75868,0.74351 4.08931,0.74351c1.26871,0 3.71755,-0.27882 3.71755,-0.27882z" stroke="none"/><path d="M232.13293,161.8545c0,1.90306 0.55763,5.57633 0.55763,5.57633h-2.23053v-11.71029h2.23053c0,0 -0.55763,4.13801 -0.55763,6.13396z" stroke="none"/><path d="M230.16603,162.30917l-3.36265,3.47112l-1.06804,-1.03466l3.36266,-3.47113z" stroke="none"/></g></g></g></svg>